<svg xmlns="http://www.w3.org/2000/svg" width="20.247" height="20.241" viewBox="0 0 20.247 20.241">
    <g data-name="Group 16">
        <path d="M12.999 12.153a.7.7 0 0 0-1.194.51.7.7 0 0 0 .211.493l7.037 6.889a.721.721 0 0 0 .994-.01.7.7 0 0 0-.011-.993z" data-name="Path 17"/>
        <path d="M6.945 7.936a.717.717 0 0 0 .994 0 .7.7 0 0 0 0-.992L1.2.205a.702.702 0 1 0-.994.992z" data-name="Path 18"/>
        <path d="M19.545 0a.7.7 0 0 0-.5.2L.203 19.043a.7.7 0 0 0 0 .992.716.716 0 0 0 .994 0L20.039 1.192a.7.7 0 0 0-.5-1.2z" data-name="Path 19"/>
    </g>
</svg>
